<?xml version="1.0" standalone="no"?>
<!DOCTYPE svg PUBLIC "-//W3C//DTD SVG 20010904//EN"
 "http://www.w3.org/TR/2001/REC-SVG-20010904/DTD/svg10.dtd">
<svg version="1.0" xmlns="http://www.w3.org/2000/svg"
 width="1066.000000pt" height="1066.000000pt" viewBox="0 0 1066.000000 1066.000000"
 preserveAspectRatio="xMidYMid meet">
<metadata>
Created by potrace 1.14, written by Peter Selinger 2001-2017
</metadata>
<g transform="translate(0.000000,1066.000000) scale(0.100000,-0.100000)"
fill="#000000" stroke="none">
<path d="M7053 9800 c-256 -19 -771 -84 -1598 -200 -1211 -170 -1863 -227
-2480 -217 -366 6 -380 4 -411 -54 -34 -66 14 -223 115 -377 204 -311 554
-502 1066 -584 119 -19 180 -23 405 -23 146 0 321 6 390 13 168 17 413 48 533
68 54 9 100 14 103 11 2 -2 -83 -141 -189 -308 -336 -528 -594 -959 -904
-1509 -816 -1448 -1575 -2985 -1996 -4045 -272 -686 -346 -988 -334 -1364 10
-311 84 -527 240 -697 70 -76 113 -104 160 -104 48 0 82 43 138 173 55 130
298 681 378 857 34 74 70 144 81 155 10 11 58 112 105 225 211 499 718 1502
1298 2570 238 438 240 442 360 593 215 271 549 569 881 789 514 339 947 428
1054 218 52 -103 5 -272 -136 -486 -84 -127 -146 -202 -284 -343 -404 -409
-976 -757 -1608 -976 -222 -77 -273 -104 -302 -164 -22 -44 -23 -55 -22 -301
0 -276 12 -435 50 -660 81 -487 251 -864 508 -1128 162 -167 325 -273 516
-336 152 -50 247 -67 411 -73 284 -11 528 41 779 166 195 97 325 192 508 374
147 145 244 263 369 448 246 365 336 583 337 819 0 124 -19 192 -69 245 -24
26 -41 35 -65 35 -56 0 -92 -38 -155 -162 -376 -738 -830 -1310 -1184 -1492
-111 -57 -178 -76 -267 -76 -363 0 -676 435 -808 1125 -32 166 -54 341 -62
480 l-7 110 134 44 c340 110 691 281 978 473 284 191 604 480 730 658 139 197
199 371 208 600 8 229 -24 373 -137 609 -144 297 -302 471 -496 543 -85 32
-284 32 -399 1 -244 -66 -538 -219 -803 -414 -50 -38 -95 -69 -98 -69 -4 0 0
10 8 23 8 12 147 258 308 547 368 658 460 848 573 1175 25 72 77 197 116 278
92 191 141 310 186 449 20 62 38 114 39 115 11 11 818 131 1061 157 458 51
839 66 1156 46 157 -10 214 -10 241 -1 92 30 113 123 57 256 -18 43 -60 120
-93 169 -204 306 -523 474 -1016 536 -117 15 -509 21 -657 10z"/>
</g>
</svg>
